# xmcd
#
# Track frame offsets:
#	150
#	17410
#	33109
#	48849
#	63862
#	79473
#	98610
#	120126
#	140946
#	156335
#	170270
#	182011
#	198214
#	213854
#
# Disc length: 2980 seconds
#
# Revision: 5
# Processed by: cddbd v1.5.1PL0 Copyright (c) Steve Scherf et al.
# Submitted via: EasyCDDAExtractor 8.2.1.1
#
DISCID=aa0ba20e
DTITLE=йотсияас циаммгс - нукимо акоцайи
DYEAR=2003
DGENRE=емтевмо
TTITLE0=ьихуяос стг ломаниа
TTITLE1=ецы дем се йатгцояы
TTITLE2=та лийяобиа
TTITLE3=о апкос
TTITLE4=се суцвыяы йаи ти ма цимеи
TTITLE5=непеслемос аццекос
TTITLE6=ха яытгсы та тяацоудиа
TTITLE7=о жяомилитгс
TTITLE8=епидауяос
TTITLE9=баке ма пиы
TTITLE10=тосодоука
TTITLE11=ликема
TTITLE12=айимгта ока
TTITLE13=етси йиа аккиыс
EXTD=YEAR: 2003
EXTT0=
EXTT1=
EXTT2=
EXTT3=
EXTT4=
EXTT5=
EXTT6=
EXTT7=
EXTT8=
EXTT9=
EXTT10=
EXTT11=
EXTT12=
EXTT13=
PLAYORDER=
